<svg width="14" height="15" viewBox="0 0 14 15" fill="none" xmlns="http://www.w3.org/2000/svg">
<g clip-path="url(#clip0_2011_3482)">
<path d="M7.43156 1.1138L9.23096 4.9323L13.2545 5.54569C13.3433 5.55911 13.4268 5.59834 13.4955 5.65892C13.5642 5.71951 13.6153 5.79903 13.6431 5.88849C13.6708 5.97794 13.6741 6.07375 13.6526 6.16506C13.6311 6.25638 13.5855 6.33955 13.5212 6.40516L10.6092 9.3751L11.2965 13.573C11.3117 13.6658 11.3018 13.7611 11.2679 13.8482C11.2341 13.9353 11.1777 14.0108 11.105 14.0661C11.0324 14.1214 10.9464 14.1543 10.8568 14.1611C10.7673 14.1679 10.6777 14.1483 10.5982 14.1046L6.99993 12.1256L3.40112 14.1064C3.32155 14.15 3.23196 14.1694 3.14242 14.1625C3.05289 14.1555 2.96698 14.1225 2.89439 14.0672C2.82179 14.0119 2.76538 13.9364 2.73152 13.8493C2.69767 13.7622 2.68771 13.667 2.70277 13.5742L3.39013 9.37874L0.4781 6.40879C0.413754 6.34319 0.368232 6.26002 0.346687 6.1687C0.325143 6.07739 0.328438 5.98158 0.356199 5.89212C0.38396 5.80267 0.435078 5.72315 0.503764 5.66256C0.572449 5.60198 0.655957 5.56275 0.744828 5.54933L4.76832 4.93291L6.56773 1.11441C6.60753 1.03005 6.66905 0.959031 6.74533 0.909352C6.82162 0.859673 6.90964 0.833315 6.99946 0.833252C7.08929 0.833189 7.17734 0.859423 7.25369 0.908995C7.33004 0.958567 7.39165 1.0295 7.43156 1.1138Z" fill="#FFC400"/>
</g>
<defs>
<clipPath id="clip0_2011_3482">
<rect width="13.334" height="13.3306" fill="white" transform="translate(0.332642 0.833252)"/>
</clipPath>
</defs>
</svg>
